<svg width="47" height="26" viewBox="0 0 47 26" fill="none" xmlns="http://www.w3.org/2000/svg">
<rect x="-0.000976562" width="47" height="26" rx="13" fill="#272934"/>
<path opacity="0.7" d="M30.6006 12.974C30.6006 15.416 28.9946 17.132 26.6846 17.132C24.3856 17.132 22.8016 15.427 22.8016 12.974C22.8016 10.532 24.3966 8.816 26.6956 8.816C28.9946 8.816 30.6006 10.521 30.6006 12.974ZM29.1156 12.974C29.1156 11.258 28.1696 10.169 26.6956 10.169C25.2216 10.169 24.2756 11.258 24.2756 12.974C24.2756 14.69 25.2216 15.779 26.6956 15.779C28.1696 15.779 29.1156 14.668 29.1156 12.974ZM31.174 11.566H31.955V10.906C31.955 9.432 32.736 8.816 33.913 8.816C34.122 8.816 34.375 8.827 34.606 8.871V10.015H34.133C33.451 10.015 33.286 10.367 33.286 10.906V11.566H34.584V12.688H33.286V17H31.955V12.688H31.174V11.566ZM35.0519 11.566H35.8329V10.906C35.8329 9.432 36.6139 8.816 37.7909 8.816C37.9999 8.816 38.2529 8.827 38.4839 8.871V10.015H38.0109C37.3289 10.015 37.1639 10.367 37.1639 10.906V11.566H38.4619V12.688H37.1639V17H35.8329V12.688H35.0519V11.566Z" fill="#9B9D9F"/>
<circle opacity="0.7" cx="12.999" cy="13" r="6" fill="#9B9D9F"/>
</svg>
