<svg width="47" height="26" viewBox="0 0 47 26" fill="none" xmlns="http://www.w3.org/2000/svg">
<rect x="-0.000976562" width="47" height="26" rx="13" fill="#3E3F49"/>
<path d="M16.6645 12.974C16.6645 15.416 15.0585 17.132 12.7485 17.132C10.4495 17.132 8.86552 15.427 8.86552 12.974C8.86552 10.532 10.4605 8.816 12.7595 8.816C15.0585 8.816 16.6645 10.521 16.6645 12.974ZM15.1795 12.974C15.1795 11.258 14.2335 10.169 12.7595 10.169C11.2855 10.169 10.3395 11.258 10.3395 12.974C10.3395 14.69 11.2855 15.779 12.7595 15.779C14.2335 15.779 15.1795 14.668 15.1795 12.974ZM19.119 17H17.777V11.566H19.02L19.13 12.27C19.471 11.72 20.131 11.401 20.868 11.401C22.232 11.401 22.936 12.248 22.936 13.656V17H21.594V13.975C21.594 13.062 21.143 12.622 20.45 12.622C19.625 12.622 19.119 13.194 19.119 14.074V17Z" fill="#07D41B"/>
<circle cx="33.999" cy="13" r="6" fill="#07D41B"/>
</svg>
